PathFileType	4	(X/Y/Z)	Patient4_TMGait_0pt4_02_left_06.trc.trc
DataRate	CameraRate	NumFrames	NumMarkers	Units	OrigDataRate	OrigDataStartFrame	OrigNumFrames
74.866310160428	74.866310160428	4	33	mm	74.866310160428	106	       141
Frame#	Time	Sacral			L.Shoulder			Chest			R.Shoulder			Neck			R.ASIS			L.ASIS			R.Thigh.Superior			R.Thigh.Lateral			R.Thigh.Inferior			R.Patella			L.Thigh.Superior			L.Thigh.Lateral			L.Thigh.Inferior			L.Patella			L.Shank.Superior			L.Shank.Lateral			L.Shank.Inferior			R.Shank.Superior			R.Shank.Lateral			R.Shank.Inferior			R.Heel			R.Midfoot.Superior			R.Midfoot.Lateral			R.Toe			L.Heel			L.Midfoot.Lateral			L.Midfoot.Superior			L.Toe			L.Elbow			L.Wrist			R.Elbow			R.Wrist			
		X1	Y1	Z1	X2	Y2	Z2	X3	Y3	Z3	X4	Y4	Z4	X5	Y5	Z5	X6	Y6	Z6	X7	Y7	Z7	X8	Y8	Z8	X9	Y9	Z9	X10	Y10	Z10	X11	Y11	Z11	X12	Y12	Z12	X13	Y13	Z13	X14	Y14	Z14	X15	Y15	Z15	X16	Y16	Z16	X17	Y17	Z17	X18	Y18	Z18	X19	Y19	Z19	X20	Y20	Z20	X21	Y21	Z21	X22	Y22	Z22	X23	Y23	Z23	X24	Y24	Z24	X25	Y25	Z25	X26	Y26	Z26	X27	Y27	Z27	X28	Y28	Z28	X29	Y29	Z29	X30	Y30	Z30	X31	Y31	Z31	X32	Y32	Z32	X33	Y33	Z33	

106	9.462500000000	874.968171042499	1005.178942686145	543.335618935232	1014.555508103175	1446.651654428417	359.401630500193	1140.025352707853	1377.063268538665	502.623951437392	1078.288056964283	1439.857859246745	689.149765738338	1016.688984875937	1500.697997102179	519.273045301013	1114.258141497341	946.957148566889	635.568037143225	1072.587684349096	974.823401699192	364.300141724676	1129.743982992509	739.521719574728	605.134192054632	1037.666097440788	635.810509787997	669.061858030393	1105.115068083406	577.984368051985	589.009975333605	1095.859555464301	494.156377943891	595.151990537069	1157.768400489789	789.354175890066	377.056199609221	1108.315346273877	663.350946036230	296.178345184658	1217.384563571616	603.606131381840	344.749537924020	1239.197710613074	527.394887596949	331.892447082299	1201.167866554791	452.927094345084	323.545209135887	1091.496653957774	352.479339375061	282.545860794313	1149.084891428956	229.598231381897	324.973332193656	1067.208586289504	406.725067301037	599.838005254876	992.698797560808	301.583856006055	656.178931660926	1038.862421912023	208.375038608730	591.656242830602	907.815275621012	43.216047489308	549.347119989070	1077.023397637889	97.679540519553	595.704019970215	987.740156508364	36.917998129159	628.678279703439	1196.000597783305	44.874609068278	626.760787763937	1021.567127946025	77.215910148951	372.698817352873	1082.166356054432	71.482641922308	282.659040577128	1171.318717878572	129.858772158462	295.996204285002	1289.021444179793	74.332275471836	247.574989095538	911.978020369220	1108.795426228321	252.430684692851	929.396404296501	847.216381491061	243.066690231255	1194.311731988298	1119.393397745139	817.478102312440	1440.804398857720	1052.407020287113	776.499813277187	
107	9.475857142857	874.792626993548	1005.441336172298	544.818900512423	1013.486476679663	1446.515341819158	360.181119393855	1140.206323240676	1376.682155068869	502.155480729616	1080.364557003536	1439.546416386324	689.288822487156	1017.306617547586	1500.384601647514	520.101602019073	1114.515501208638	946.457811665307	635.323675129158	1071.182766111109	974.499086884444	364.274309434539	1127.582823281185	738.638503277434	605.241916415470	1034.359648511642	635.790819907553	669.611211049370	1100.566816709549	577.315992213227	589.402085365376	1090.608626854851	493.886557936108	595.618979776682	1155.176462973916	788.325694304691	377.335390695123	1105.641179627683	662.662489407999	296.152027850587	1214.010019066345	602.549497514598	346.063422615796	1236.952185194084	528.556381316133	332.976226097585	1202.745932154131	454.464814927927	323.882214203983	1099.832039345262	347.730453135306	281.604675674662	1164.955215041313	228.148043180110	323.581362961087	1061.754762444048	406.770235823659	600.208675338196	987.294682498642	301.608876329381	656.561693117407	1033.422648728334	208.414422786934	591.849041533760	902.453199578866	43.198398879594	549.419144390719	1071.634838677525	97.504960483780	595.594291204185	982.358970066806	36.883883187533	628.706347946391	1190.619199058384	44.797121691972	626.779504931510	1047.067960993315	67.982688594831	369.942057838607	1108.672171877576	65.906333399166	280.359548918977	1194.118972799327	129.488399152164	294.265350244685	1315.337795019460	80.886865572347	246.788161948644	905.967299189957	1110.083041038615	254.814528531027	918.984567139428	848.225369163921	246.225717711034	1201.968467625612	1121.624811360683	816.787836655660	1450.507551652905	1066.246429158218	772.403735917231	
108	9.489214285714	874.548752223663	1005.630110620741	546.068057809416	1012.610308868395	1446.268568941887	360.709846356973	1140.440342900191	1376.170304930566	501.537079066569	1082.367504692307	1439.140105349461	689.204971545865	1017.986704199958	1499.988363352171	520.674431259440	1114.699015024559	945.907922443876	635.007468674173	1069.819260903633	974.000308708441	364.148367819463	1125.529316321533	737.730078130685	605.398294789499	1031.148462308303	635.743684826032	670.116904928701	1096.193886643963	576.638110701717	589.778619145350	1085.571012066320	493.571006358310	596.046519378727	1152.411423997036	786.968856696878	377.583542193442	1102.667369030457	661.704244033692	296.081722391341	1210.362892627326	601.156580999565	347.303205347998	1234.345565815989	529.383651783400	334.169972001974	1203.841070218283	455.874190790142	324.376628485523	1107.831680550494	343.469868351416	280.673506841605	1179.874292806750	227.503053483365	322.479839853620	1056.441638673396	406.776823588083	600.537211626622	982.008727543143	301.644698627242	656.935237815729	1028.045736068975	208.445041730156	592.033454495424	897.088471144818	43.188737815935	549.494253924008	1066.251944344943	97.321720687931	595.479593491575	976.979250753356	36.849164703195	628.740562855217	1185.243680642912	44.711241011771	626.810845506759	1071.441830941391	60.515591193164	367.312866658334	1134.151383035483	61.762475268576	278.402431262616	1215.766827388221	130.129106426327	293.004814088293	1340.143995714591	88.151610062396	246.981895985140	900.479842149954	1111.198164916456	257.018810932335	909.376667546719	849.147769574053	249.177562888090	1209.218766140496	1123.694275730193	815.769511961156	1459.187412745011	1079.859994117958	768.113266605027	
109	9.502571428571	874.251910483360	1005.777019117588	547.088318803767	1011.927203800440	1445.943401123029	360.978548098424	1140.726751867460	1375.565541736135	500.767029232358	1084.286956639127	1438.680196021189	688.893710982763	1018.711109196379	1499.548527956991	520.967092308520	1114.805800099609	945.332719686689	634.619069780921	1068.498638240413	973.376095667209	363.919326054680	1123.580052981207	736.819439764074	605.573820221053	1028.049699448825	635.686528312670	670.559431239631	1092.020539470913	575.965400683869	590.119564018300	1080.772658651781	493.219602338929	596.419779301969	1149.571467646859	785.427515405956	377.780084988214	1099.514748080168	660.553935326772	296.011371060909	1206.648742387969	599.584528199811	348.377061103254	1231.564382747761	529.961627314617	335.416956583381	1204.557573682951	457.170072775443	325.002215104391	1115.351969076908	339.788347325552	279.843357955802	1193.592483390880	227.593402371572	321.708969985154	1051.296348028052	406.752057980303	600.817488984673	976.852830336244	301.706401373998	657.290976429145	1022.741670560730	208.474926228017	592.213094473142	891.720349348484	43.195243018389	549.577302412199	1060.880140782611	97.148433333043	595.382976850501	971.601326633152	36.815866806416	628.783592045451	1179.873501228952	44.618051310795	626.851833511170	1094.159670926027	54.805874799190	364.987705151822	1158.030352515095	58.968370427617	276.899925985868	1235.848022617526	131.617564987914	292.240438853416	1362.994588915802	95.790653036371	248.056928884950	895.536955522417	1112.147820962611	259.015681815418	900.610197497875	849.974868078971	251.897925086768	1216.040664706551	1125.610908037546	814.426609819504	1466.838254068203	1093.147641613400	763.674182977391	
